<svg width="192" height="32" viewBox="0 0 192 32" fill="none" xmlns="http://www.w3.org/2000/svg">
<path d="M0 1.6001L10.1668 30.4001H12.6167L20.4459 7.89529H20.6501L28.2242 30.4001H30.6434L40.8 1.6001H38.9218L30.4392 25.6223H30.2759L22.2833 1.6001H20.5276L12.3717 25.4993H12.2084L3.77683 1.6001H0Z" fill="#00512F"/>
<path d="M54.3644 21.9211L58.3614 30.4001H62.4L48.8204 1.6001H46.7337L34.4 30.4001H36.3206L39.9854 21.9211H54.3644ZM53.4819 20.0756H40.7745L46.7752 6.20359H46.9413L53.4819 20.0756Z" fill="#00512F"/>
<path d="M83.9644 21.9211L87.9614 30.4001H92L78.4205 1.6001H76.3337L64 30.4001H65.9207L69.5855 21.9211H83.9644ZM83.0819 20.0756H70.3745L76.3752 6.20359H76.5413L83.0819 20.0756Z" fill="#00512F"/>
<path d="M95.2 1.6001V30.4001H99.0654V16.077H112.24V14.1905H99.0654V3.86596H114.4V1.6001H95.2Z" fill="#00512F"/>
<path d="M116 1.6001V30.4001H120V1.6001H116Z" fill="#00512F"/>
<path d="M123.2 1.6001V29.9162H126.916V17.4164H128.707C129.473 17.4164 130.107 17.4845 130.611 17.618C131.112 17.7541 131.568 17.9809 131.975 18.3035C132.387 18.6261 132.772 19.0469 133.125 19.5636C133.477 20.0751 133.899 20.7077 134.388 21.4587L137.615 26.1965C138.022 26.8165 138.422 27.3835 138.816 27.9001C139.216 28.4117 139.646 28.8477 140.109 29.2106C140.569 29.5735 141.091 29.8633 141.677 30.0775C142.267 30.2917 142.969 30.4001 143.784 30.4001C144.379 30.4001 144.868 30.3724 145.25 30.3195C145.637 30.264 146.018 30.1304 146.4 29.9162V28.4243C146.263 28.452 146.128 28.4722 145.993 28.4848C145.855 28.4999 145.721 28.505 145.586 28.505C145.008 28.505 144.501 28.4243 144.069 28.263C143.634 28.0967 143.226 27.8573 142.847 27.5473C142.465 27.2399 142.096 26.8618 141.738 26.4183C141.384 25.9748 141.017 25.4682 140.638 24.8961C139.498 23.2581 138.612 21.9476 137.981 20.9647C137.355 19.9769 136.861 19.2158 136.495 18.6765C136.128 18.1321 135.826 17.739 135.589 17.4971C135.357 17.2551 135.08 17.0535 134.754 16.8922L134.347 16.6906V16.5293C135.655 16.4487 136.78 16.1664 137.717 15.6826C138.658 15.1937 139.429 14.5838 140.027 13.858C140.623 13.1272 141.058 12.3358 141.33 11.4891C141.6 10.6423 141.738 9.81319 141.738 8.99919C141.738 8.27339 141.595 7.48207 141.31 6.62019C141.025 5.75327 140.536 4.95187 139.844 4.21095C139.152 3.46499 138.205 2.84504 137.004 2.34605C135.803 1.84959 134.291 1.6001 132.474 1.6001H123.2ZM126.916 3.37427H131.039C132.077 3.37427 133.008 3.52547 133.838 3.82789C134.665 4.12526 135.378 4.53352 135.976 5.05771C136.579 5.5819 137.037 6.21193 137.35 6.94276C137.661 7.66856 137.818 8.4624 137.818 9.32176C137.818 10.0551 137.676 10.791 137.391 11.5294C137.106 12.2703 136.673 12.9457 136.098 13.5556C135.528 14.1604 134.828 14.6518 134.001 15.0273C133.171 15.4053 132.212 15.5918 131.12 15.5918H126.916V3.37427Z" fill="#00512F"/>
<mask id="mask0_4111_839" style="mask-type:luminance" maskUnits="userSpaceOnUse" x="152" y="0" width="40" height="32">
<path d="M152.8 0H192V32H152.8V0Z" fill="white"/>
</mask>
<g mask="url(#mask0_4111_839)">
<path d="M152.695 4.8C152.695 2.14903 154.844 0 157.495 0H187.095C189.746 0 191.895 2.14903 191.895 4.8V27.2C191.895 29.851 189.746 32 187.095 32H157.495C154.844 32 152.695 29.851 152.695 27.2V4.8Z" fill="#EFA22F"/>
</g>
<mask id="mask1_4111_839" style="mask-type:luminance" maskUnits="userSpaceOnUse" x="165" y="11" width="6" height="17">
<path d="M165.98 12.5163C165.98 12.0745 166.338 11.7163 166.78 11.7163H169.98C170.422 11.7163 170.78 12.0745 170.78 12.5163V26.9163C170.78 27.3581 170.422 27.7163 169.98 27.7163H166.78C166.338 27.7163 165.98 27.3581 165.98 26.9163V12.5163Z" fill="white"/>
</mask>
<g mask="url(#mask1_4111_839)">
<path d="M165.98 12.5163C165.98 12.0745 166.338 11.7163 166.78 11.7163H169.98C170.422 11.7163 170.78 12.0745 170.78 12.5163V26.9101C170.78 27.3519 170.422 27.7101 169.98 27.7101H166.78C166.338 27.7101 165.98 27.3519 165.98 26.9101V12.5163Z" fill="#FDFDFE"/>
<path d="M165.98 12.5163C165.98 12.0745 166.338 11.7163 166.78 11.7163H169.98C170.422 11.7163 170.78 12.0745 170.78 12.5163V26.9163C170.78 27.3581 170.422 27.7163 169.98 27.7163H166.78C166.338 27.7163 165.98 27.3581 165.98 26.9163V12.5163Z" fill="#FDFDFE"/>
</g>
<mask id="mask2_4111_839" style="mask-type:luminance" maskUnits="userSpaceOnUse" x="157" y="15" width="6" height="13">
<path d="M157.495 16.9163C157.495 16.2536 158.032 15.7163 158.695 15.7163H161.095C161.758 15.7163 162.295 16.2536 162.295 16.9163V26.5163C162.295 27.1791 161.758 27.7163 161.095 27.7163H158.695C158.032 27.7163 157.495 27.1791 157.495 26.5163V16.9163Z" fill="white"/>
</mask>
<g mask="url(#mask2_4111_839)">
<path d="M157.495 16.5163C157.495 16.0745 157.853 15.7163 158.295 15.7163H161.495C161.937 15.7163 162.295 16.0745 162.295 16.5163V26.9163C162.295 27.3581 161.937 27.7163 161.495 27.7163H158.295C157.853 27.7163 157.495 27.3581 157.495 26.9163V16.5163Z" fill="#FDFDFE"/>
</g>
<mask id="mask3_4111_839" style="mask-type:luminance" maskUnits="userSpaceOnUse" x="174" y="13" width="6" height="15">
<path d="M174.295 14.5163C174.295 14.0745 174.653 13.7163 175.095 13.7163H178.295C178.737 13.7163 179.095 14.0745 179.095 14.5163V26.9163C179.095 27.3581 178.737 27.7163 178.295 27.7163H175.095C174.653 27.7163 174.295 27.3581 174.295 26.9163V14.5163Z" fill="white"/>
</mask>
<g mask="url(#mask3_4111_839)">
<path d="M174.295 14.5163C174.295 14.0745 174.653 13.7163 175.095 13.7163H178.295C178.737 13.7163 179.095 14.0745 179.095 14.5163V26.9226C179.095 27.3644 178.737 27.7226 178.295 27.7226H175.095C174.653 27.7226 174.295 27.3644 174.295 26.9226V14.5163Z" fill="#FDFDFE"/>
<path d="M174.295 14.5163C174.295 14.0745 174.653 13.7163 175.095 13.7163H178.295C178.737 13.7163 179.095 14.0745 179.095 14.5163V26.9163C179.095 27.3581 178.737 27.7163 178.295 27.7163H175.095C174.653 27.7163 174.295 27.3581 174.295 26.9163V14.5163Z" fill="#FDFDFE"/>
</g>
<mask id="mask4_4111_839" style="mask-type:luminance" maskUnits="userSpaceOnUse" x="182" y="9" width="6" height="19">
<path d="M182.695 10.5207C182.695 10.0789 183.053 9.7207 183.495 9.7207H186.532C186.974 9.7207 187.332 10.0789 187.332 10.5207V26.9124C187.332 27.3542 186.974 27.7124 186.532 27.7124H183.495C183.053 27.7124 182.695 27.3542 182.695 26.9124V10.5207Z" fill="white"/>
</mask>
<g mask="url(#mask4_4111_839)">
<path d="M182.695 10.5207C182.695 10.0789 183.053 9.7207 183.495 9.7207H186.532C186.974 9.7207 187.332 10.0789 187.332 10.5207V26.9124C187.332 27.3542 186.974 27.7124 186.532 27.7124H183.495C183.053 27.7124 182.695 27.3542 182.695 26.9124V10.5207Z" fill="#FDFDFE"/>
</g>
<mask id="mask5_4111_839" style="mask-type:luminance" maskUnits="userSpaceOnUse" x="166" y="6" width="5" height="5">
<path d="M166.118 6.17529H170.468V10.5253H166.118V6.17529Z" fill="white"/>
</mask>
<g mask="url(#mask5_4111_839)">
<mask id="mask6_4111_839" style="mask-type:luminance" maskUnits="userSpaceOnUse" x="166" y="6" width="5" height="5">
<path d="M168.293 6.17529C167.093 6.17529 166.118 7.15029 166.118 8.35029C166.118 9.55238 167.093 10.5253 168.293 10.5253C169.495 10.5253 170.468 9.55238 170.468 8.35029C170.468 7.15029 169.495 6.17529 168.293 6.17529Z" fill="white"/>
</mask>
<g mask="url(#mask6_4111_839)">
<path d="M168.293 6.17529C167.093 6.17529 166.118 7.15029 166.118 8.35029C166.118 9.55238 167.093 10.5253 168.293 10.5253C169.495 10.5253 170.468 9.55238 170.468 8.35029C170.468 7.15029 169.495 6.17529 168.293 6.17529Z" fill="#FDFDFE"/>
</g>
</g>
<mask id="mask7_4111_839" style="mask-type:luminance" maskUnits="userSpaceOnUse" x="182" y="4" width="6" height="5">
<path d="M182.839 4H187.189V8.35H182.839V4Z" fill="white"/>
</mask>
<g mask="url(#mask7_4111_839)">
<mask id="mask8_4111_839" style="mask-type:luminance" maskUnits="userSpaceOnUse" x="182" y="4" width="6" height="5">
<path d="M185.014 4C183.811 4 182.839 4.97292 182.839 6.175C182.839 7.375 183.811 8.35 185.014 8.35C186.216 8.35 187.189 7.375 187.189 6.175C187.189 4.97292 186.216 4 185.014 4Z" fill="white"/>
</mask>
<g mask="url(#mask8_4111_839)">
<path d="M185.014 4C183.811 4 182.839 4.97292 182.839 6.175C182.839 7.375 183.811 8.35 185.014 8.35C186.216 8.35 187.189 7.375 187.189 6.175C187.189 4.97292 186.216 4 185.014 4Z" fill="#FDFDFE"/>
</g>
</g>
<mask id="mask9_4111_839" style="mask-type:luminance" maskUnits="userSpaceOnUse" x="157" y="10" width="6" height="5">
<path d="M157.718 10.1392H162.068V14.4892H157.718V10.1392Z" fill="white"/>
</mask>
<g mask="url(#mask9_4111_839)">
<mask id="mask10_4111_839" style="mask-type:luminance" maskUnits="userSpaceOnUse" x="157" y="10" width="6" height="5">
<path d="M159.893 10.1392C158.693 10.1392 157.718 11.1142 157.718 12.3142C157.718 13.5162 158.693 14.4892 159.893 14.4892C161.095 14.4892 162.068 13.5162 162.068 12.3142C162.068 11.1142 161.095 10.1392 159.893 10.1392Z" fill="white"/>
</mask>
<g mask="url(#mask10_4111_839)">
<path d="M159.893 10.1392C158.693 10.1392 157.718 11.1142 157.718 12.3142C157.718 13.5162 158.693 14.4892 159.893 14.4892C161.095 14.4892 162.068 13.5162 162.068 12.3142C162.068 11.1142 161.095 10.1392 159.893 10.1392Z" fill="#FDFDFE"/>
</g>
</g>
<mask id="mask11_4111_839" style="mask-type:luminance" maskUnits="userSpaceOnUse" x="174" y="7" width="5" height="6">
<path d="M174.518 7.96436H178.868V12.3144H174.518V7.96436Z" fill="white"/>
</mask>
<g mask="url(#mask11_4111_839)">
<mask id="mask12_4111_839" style="mask-type:luminance" maskUnits="userSpaceOnUse" x="174" y="7" width="5" height="6">
<path d="M176.693 7.96436C175.493 7.96436 174.518 8.93727 174.518 10.1394C174.518 11.3394 175.493 12.3144 176.693 12.3144C177.895 12.3144 178.868 11.3394 178.868 10.1394C178.868 8.93727 177.895 7.96436 176.693 7.96436Z" fill="white"/>
</mask>
<g mask="url(#mask12_4111_839)">
<path d="M176.693 7.96436C175.493 7.96436 174.518 8.93727 174.518 10.1394C174.518 11.3394 175.493 12.3144 176.693 12.3144C177.895 12.3144 178.868 11.3394 178.868 10.1394C178.868 8.93727 177.895 7.96436 176.693 7.96436Z" fill="#FDFDFE"/>
</g>
</g>
<path d="M161.864 11.3874L166.326 9.27908" stroke="#FDFDFE" stroke-width="0.8"/>
<path d="M178.659 9.2041L183.049 7.11244" stroke="#FDFDFE" stroke-width="0.8"/>
<path d="M170.424 8.8063L174.566 9.68755" stroke="#FDFDFE" stroke-width="0.8"/>
</svg>
